<svg width="25" height="25" viewBox="0 0 25 25" fill="none" xmlns="http://www.w3.org/2000/svg">
<path d="M8.87217 2.24609C8.51573 2.30957 8.11046 2.52441 7.83214 2.80762C7.37803 3.26172 7.22667 3.70605 7.22667 4.59961V5.17578H4.45323C1.38682 5.17578 1.39659 5.17578 0.903425 5.48828C0.449323 5.78125 0.156354 6.2207 0.0489324 6.76269C0.00986992 6.97754 0.000104295 8.98437 0.00986992 14.1602L0.0245184 21.2646L0.136823 21.5381C0.341901 22.0557 0.781354 22.4805 1.31846 22.6904C1.52842 22.7734 2.10948 22.7783 12.5001 22.7783C22.8907 22.7783 23.4718 22.7734 23.6817 22.6904C24.2189 22.4805 24.6583 22.0557 24.8634 21.5381L24.9757 21.2646L24.9903 14.1602C25.0001 8.98437 24.9903 6.97754 24.9513 6.76269C24.8439 6.2207 24.5509 5.78125 24.0968 5.48828C23.6036 5.17578 23.6134 5.17578 20.5519 5.17578H17.7833L17.7638 4.47754C17.7442 3.91113 17.7198 3.73535 17.6319 3.50097C17.4269 2.97851 16.9972 2.55371 16.4357 2.32422C16.1915 2.22168 16.1183 2.22168 12.6466 2.21191C10.6983 2.21191 8.99913 2.22656 8.87217 2.24609ZM15.9669 4.0039C16.0548 4.09179 16.0646 4.16504 16.0646 4.63867V5.17578H12.5001H8.93565V4.63867C8.93565 4.16504 8.94542 4.09179 9.03331 4.0039C9.13096 3.90625 9.19444 3.90625 12.5001 3.90625C15.8058 3.90625 15.8692 3.90625 15.9669 4.0039ZM23.2423 6.97754C23.2716 7.04101 23.2911 7.87109 23.2911 9.33594V11.6016L22.7442 11.7773C18.3448 13.208 11.4015 13.5498 5.796 12.6172C4.49229 12.4023 3.31553 12.1191 2.26085 11.7773L1.70909 11.6016V9.33594C1.70909 7.87109 1.72862 7.04101 1.75792 6.97754C1.81163 6.88476 1.98253 6.88476 12.5001 6.88476C23.0177 6.88476 23.1886 6.88476 23.2423 6.97754ZM2.44639 13.6182C3.79405 14.0088 5.56163 14.3506 7.23155 14.5459C8.23741 14.6631 9.8878 14.7949 10.381 14.7949H10.7276L10.7569 15.1611C10.8107 15.7617 11.0011 16.0986 11.4357 16.3379C11.6944 16.4795 11.6993 16.4795 12.5001 16.4795C13.3009 16.4795 13.3058 16.4795 13.5646 16.3379C13.9991 16.0986 14.1896 15.7617 14.2433 15.1611L14.2726 14.7949H14.6192C15.0148 14.7949 16.7042 14.6729 17.3585 14.5947C19.4483 14.3555 21.3673 13.9893 22.7101 13.5742C22.9689 13.4912 23.2032 13.4277 23.2374 13.4277C23.2765 13.4277 23.2911 14.4043 23.2911 17.1729C23.2911 20.5859 23.2862 20.9229 23.2081 21.0059C23.1349 21.0889 22.7345 21.0937 12.5099 21.0937C2.69542 21.0937 1.87999 21.0889 1.79698 21.0107C1.71397 20.9375 1.70909 20.752 1.70909 17.1777C1.70909 15.1172 1.72374 13.4277 1.74815 13.4277C1.76768 13.4277 2.08018 13.5156 2.44639 13.6182Z" fill="#676565"/>
</svg>
