<svg width="19" height="25" viewBox="0 0 19 25" fill="none" xmlns="http://www.w3.org/2000/svg">
<path d="M8.86532 0.029295C7.74715 0.156248 7.1075 0.292967 6.38485 0.561522C4.47078 1.27929 2.86922 2.59277 1.78035 4.3457C0.754963 6.00097 0.28133 8.14453 0.515705 10.0586C0.896565 13.1396 3.09383 17.3877 6.73641 22.0947C7.59578 23.208 8.70418 24.541 8.95809 24.7705C9.295 25.0732 9.70516 25.0732 10.0421 24.7705C10.296 24.541 11.4044 23.208 12.2638 22.0947C15.5401 17.8613 17.6446 14.0137 18.3087 11.0254C18.4796 10.2588 18.5333 9.76074 18.5333 8.95996C18.5284 6.61621 17.5909 4.375 15.8966 2.68554C14.5001 1.28418 12.8546 0.439451 10.9161 0.122068C10.4571 0.0488262 9.19735 -0.00976753 8.86532 0.029295ZM10.5255 1.71387C12.254 1.94336 13.8848 2.82226 15.0518 4.15039C16.5704 5.87402 17.2052 8.16406 16.7804 10.376C16.336 12.6953 14.9102 15.5762 12.5518 18.9404C11.5362 20.3906 9.60262 22.9004 9.50008 22.9004C9.39754 22.9004 7.46395 20.3906 6.44832 18.9404C4.08992 15.5762 2.66414 12.6953 2.21981 10.376C1.6241 7.28515 3.12313 4.12597 5.93074 2.54883C7.25887 1.80664 8.94344 1.49902 10.5255 1.71387Z" fill="#676565"/>
<path d="M8.79209 4.5653C8.2794 4.64831 7.94736 4.75573 7.46885 4.99011C6.37022 5.52234 5.44736 6.6405 5.10557 7.8612C4.97373 8.32507 4.9249 9.25769 5.00303 9.7655C5.23252 11.2108 6.17979 12.4803 7.52256 13.1346C8.31358 13.5204 9.12412 13.6669 9.9542 13.5741C10.5938 13.5009 10.921 13.4081 11.4776 13.1346C12.8204 12.4803 13.7677 11.2108 13.9972 9.7655C14.0753 9.25769 14.0265 8.32507 13.8946 7.8612C13.5577 6.65027 12.6251 5.52234 11.5313 4.99011C10.6329 4.55066 9.72959 4.41394 8.79209 4.5653ZM10.4474 6.28894C11.1651 6.54773 11.7657 7.07507 12.088 7.72937C12.4103 8.38366 12.4981 8.98425 12.3565 9.63366C12.1808 10.4784 11.6192 11.2303 10.8673 11.6405C10.5304 11.826 9.93955 11.9628 9.5001 11.9628C9.06065 11.9628 8.46983 11.826 8.13291 11.6405C7.21006 11.1376 6.57041 10.0829 6.57041 9.05749C6.57041 8.47156 6.83408 7.73425 7.21494 7.24109C7.56651 6.7821 8.21104 6.36706 8.79209 6.2157C9.17295 6.11804 10.0909 6.16198 10.4474 6.28894Z" fill="#676565"/>
</svg>
