<svg width="25" height="25" viewBox="0 0 25 25" fill="none" xmlns="http://www.w3.org/2000/svg">
<path d="M5.44149 0.0853348C5.12766 0.239588 5.10638 0.361927 5.10638 1.96298V3.40445H3.66489C2.46277 3.40445 2.19681 3.42041 2.04787 3.48956C1.67553 3.66509 1.70213 2.96829 1.70213 12.7607V21.5958H1.04787C0.0106383 21.5958 0 21.6117 0 23.3032C0 24.6223 0.0319149 24.766 0.345745 24.9149C0.505319 24.9894 1.70213 25 12.5 25C23.2979 25 24.4947 24.9894 24.6543 24.9149C24.9681 24.766 25 24.6223 25 23.3032C25 21.6117 24.9894 21.5958 23.9521 21.5958H23.2979V12.7607C23.2979 2.96829 23.3245 3.66509 22.9521 3.48956C22.8032 3.42041 22.5372 3.40445 21.3351 3.40445H19.8936V1.96298C19.8936 0.76086 19.8777 0.494905 19.8085 0.34597C19.633 -0.0210476 20.117 0.000228882 12.4894 0.000228882C6.35106 0.000228882 5.59574 0.0108662 5.44149 0.0853348ZM18.7234 11.3831V21.5958H16.7553H14.7872V19.5692C14.7872 17.3139 14.7819 17.266 14.4415 17.1065C14.1809 16.9788 10.8191 16.9788 10.5585 17.1065C10.2181 17.266 10.2128 17.3139 10.2128 19.5692V21.5958H8.24468H6.2766V11.3831V1.17043H12.5H18.7234V11.3831ZM5.10638 13.0852V21.5958H3.98936H2.87234V13.0852V4.57466H3.98936H5.10638V13.0852ZM22.1277 13.0852V21.5958H21.0106H19.8936V13.0852V4.57466H21.0106H22.1277V13.0852ZM13.617 19.8937V21.5958H12.5H11.383V19.8937V18.1916H12.5H13.617V19.8937ZM23.8298 23.2713V23.8298H12.5H1.17021V23.2713V22.7128H12.5H23.8298V23.2713Z" fill="#676565"/>
<path d="M7.72866 3.48422C7.55313 3.55869 7.39355 3.79804 7.39355 3.98953C7.39355 4.18634 7.55313 4.42038 7.7393 4.50017C7.99462 4.60655 8.54781 4.59591 8.77653 4.47889C9.18079 4.27676 9.17015 3.65443 8.75526 3.48422C8.52121 3.38315 7.95207 3.38315 7.72866 3.48422Z" fill="#676565"/>
<path d="M10.5853 3.45765C10.3725 3.54808 10.2661 3.72361 10.2661 3.99488C10.2661 4.44701 10.564 4.61722 11.2661 4.55871C11.5746 4.53743 11.6385 4.51084 11.7661 4.36722C11.9736 4.1385 11.9736 3.84063 11.7661 3.60659C11.6172 3.44702 11.5906 3.43638 11.165 3.42042C10.9204 3.4151 10.6597 3.43106 10.5853 3.45765Z" fill="#676565"/>
<path d="M13.4736 3.44167C13.4098 3.45231 13.2927 3.53742 13.2183 3.62252C13.0321 3.85125 13.0374 4.1438 13.2342 4.3672C13.3619 4.51081 13.4257 4.53741 13.7342 4.55869C14.431 4.6172 14.7342 4.44698 14.7342 4.0055C14.7342 3.72359 14.6225 3.53742 14.4044 3.46295C14.2449 3.40444 13.7129 3.3938 13.4736 3.44167Z" fill="#676565"/>
<path d="M16.2394 3.48422C16.0639 3.55869 15.9043 3.79804 15.9043 3.98953C15.9043 4.18634 16.0639 4.42038 16.25 4.50017C16.5054 4.60655 17.0586 4.59591 17.2873 4.47889C17.6915 4.27676 17.6809 3.65443 17.266 3.48422C17.032 3.38315 16.4628 3.38315 16.2394 3.48422Z" fill="#676565"/>
<path d="M7.72866 6.88851C7.55313 6.96298 7.39355 7.20234 7.39355 7.39383C7.39355 7.59064 7.55313 7.82468 7.7393 7.90446C7.99462 8.01084 8.54781 8.00021 8.77653 7.88319C9.18079 7.68106 9.17015 7.05873 8.75526 6.88851C8.52121 6.78745 7.95207 6.78745 7.72866 6.88851Z" fill="#676565"/>
<path d="M10.5853 6.86195C10.3725 6.95238 10.2661 7.12791 10.2661 7.39918C10.2661 7.8513 10.564 8.02151 11.2661 7.963C11.5746 7.94173 11.6385 7.91513 11.7661 7.77152C11.9736 7.5428 11.9736 7.24493 11.7661 7.01089C11.6172 6.85131 11.5906 6.84067 11.165 6.82472C10.9204 6.8194 10.6597 6.83535 10.5853 6.86195Z" fill="#676565"/>
<path d="M13.4736 6.84597C13.4098 6.85661 13.2927 6.94172 13.2183 7.02682C13.0321 7.25554 13.0374 7.54809 13.2342 7.7715C13.3619 7.91511 13.4257 7.94171 13.7342 7.96298C14.431 8.02149 14.7342 7.85128 14.7342 7.4098C14.7342 7.12788 14.6225 6.94172 14.4044 6.86725C14.2449 6.80874 13.7129 6.7981 13.4736 6.84597Z" fill="#676565"/>
<path d="M16.2394 6.88851C16.0639 6.96298 15.9043 7.20234 15.9043 7.39383C15.9043 7.59064 16.0639 7.82468 16.25 7.90446C16.5054 8.01084 17.0586 8.00021 17.2873 7.88319C17.6915 7.68106 17.6809 7.05873 17.266 6.88851C17.032 6.78745 16.4628 6.78745 16.2394 6.88851Z" fill="#676565"/>
<path d="M7.72866 10.2928C7.55313 10.3673 7.39355 10.6066 7.39355 10.7981C7.39355 10.9949 7.55313 11.229 7.7393 11.3088C7.99462 11.4151 8.54781 11.4045 8.77653 11.2875C9.18079 11.0854 9.17015 10.463 8.75526 10.2928C8.52121 10.1917 7.95207 10.1917 7.72866 10.2928Z" fill="#676565"/>
<path d="M10.5853 10.2662C10.3725 10.3567 10.2661 10.5322 10.2661 10.8035C10.2661 11.2556 10.564 11.4258 11.2661 11.3673C11.5746 11.346 11.6385 11.3194 11.7661 11.1758C11.9736 10.9471 11.9736 10.6492 11.7661 10.4152C11.6172 10.2556 11.5906 10.245 11.165 10.229C10.9204 10.2237 10.6597 10.2397 10.5853 10.2662Z" fill="#676565"/>
<path d="M13.4736 10.2503C13.4098 10.2609 13.2927 10.346 13.2183 10.4311C13.0321 10.6598 13.0374 10.9524 13.2342 11.1758C13.3619 11.3194 13.4257 11.346 13.7342 11.3673C14.431 11.4258 14.7342 11.2556 14.7342 10.8141C14.7342 10.5322 14.6225 10.346 14.4044 10.2715C14.2449 10.213 13.7129 10.2024 13.4736 10.2503Z" fill="#676565"/>
<path d="M16.2394 10.2928C16.0639 10.3673 15.9043 10.6066 15.9043 10.7981C15.9043 10.9949 16.0639 11.229 16.25 11.3088C16.5054 11.4151 17.0586 11.4045 17.2873 11.2875C17.6915 11.0854 17.6809 10.463 17.266 10.2928C17.032 10.1917 16.4628 10.1917 16.2394 10.2928Z" fill="#676565"/>
<path d="M7.72866 13.6971C7.55313 13.7716 7.39355 14.0109 7.39355 14.2024C7.39355 14.3992 7.55313 14.6333 7.7393 14.7131C7.99462 14.8194 8.54781 14.8088 8.77653 14.6918C9.18079 14.4897 9.17015 13.8673 8.75526 13.6971C8.52121 13.596 7.95207 13.596 7.72866 13.6971Z" fill="#676565"/>
<path d="M10.5853 13.6705C10.3725 13.761 10.2661 13.9365 10.2661 14.2078C10.2661 14.6599 10.564 14.8301 11.2661 14.7716C11.5746 14.7503 11.6385 14.7237 11.7661 14.5801C11.9736 14.3514 11.9736 14.0535 11.7661 13.8195C11.6172 13.6599 11.5906 13.6493 11.165 13.6333C10.9204 13.628 10.6597 13.6439 10.5853 13.6705Z" fill="#676565"/>
<path d="M13.4736 13.6546C13.4098 13.6652 13.2927 13.7503 13.2183 13.8354C13.0321 14.0641 13.0374 14.3567 13.2342 14.5801C13.3619 14.7237 13.4257 14.7503 13.7342 14.7716C14.431 14.8301 14.7342 14.6599 14.7342 14.2184C14.7342 13.9365 14.6225 13.7503 14.4044 13.6758C14.2449 13.6173 13.7129 13.6067 13.4736 13.6546Z" fill="#676565"/>
<path d="M16.2394 13.6971C16.0639 13.7716 15.9043 14.0109 15.9043 14.2024C15.9043 14.3992 16.0639 14.6333 16.25 14.7131C16.5054 14.8194 17.0586 14.8088 17.2873 14.6918C17.6915 14.4897 17.6809 13.8673 17.266 13.6971C17.032 13.596 16.4628 13.596 16.2394 13.6971Z" fill="#676565"/>
<path d="M7.72866 17.1009C7.55313 17.1754 7.39355 17.4147 7.39355 17.6062C7.39355 17.803 7.55313 18.0371 7.7393 18.1169C7.99462 18.2232 8.54781 18.2126 8.77653 18.0956C9.18079 17.8935 9.17015 17.2711 8.75526 17.1009C8.52121 16.9999 7.95207 16.9999 7.72866 17.1009Z" fill="#676565"/>
<path d="M16.2394 17.1009C16.0639 17.1754 15.9043 17.4147 15.9043 17.6062C15.9043 17.803 16.0639 18.0371 16.25 18.1169C16.5054 18.2232 17.0586 18.2126 17.2873 18.0956C17.6915 17.8935 17.6809 17.2711 17.266 17.1009C17.032 16.9999 16.4628 16.9999 16.2394 17.1009Z" fill="#676565"/>
</svg>
